<svg width="48" height="48" viewBox="0 0 48 48" fill="none" xmlns="http://www.w3.org/2000/svg">
<path d="M24.438 7.5C15.804 7.5 11.22 13.299 11.22 19.6155C11.22 22.548 12.7785 26.2035 15.2805 27.3675C15.66 27.5445 15.861 27.4635 15.945 27.0975C16.0155 26.82 16.3545 25.464 16.5045 24.831C16.533 24.7304 16.5348 24.6242 16.5098 24.5227C16.4848 24.4211 16.4339 24.3279 16.362 24.252C15.537 23.2515 14.88 21.408 14.88 19.6905C14.88 15.2775 18.222 11.01 23.9115 11.01C28.8315 11.01 32.268 14.355 32.268 19.149C32.268 24.564 29.538 28.311 25.9815 28.311C24.018 28.311 22.545 26.6895 23.0145 24.6915C23.5815 22.3155 24.6735 19.7445 24.6735 18.0345C24.6735 16.4955 23.8455 15.21 22.146 15.21C20.1345 15.21 18.5235 17.2875 18.5235 20.0715C18.5235 21.8445 19.1235 23.0385 19.1235 23.0385C19.1235 23.0385 17.139 31.428 16.779 32.9895C16.1595 35.637 16.8555 39.927 16.92 40.3035C16.9515 40.5045 17.178 40.5735 17.298 40.4025C17.4915 40.14 19.8855 36.555 20.559 33.9645L21.801 29.208C22.4595 30.4515 24.3615 31.5045 26.3925 31.5045C32.424 31.5045 36.777 25.95 36.777 19.056C36.78 12.4515 31.38 7.5 24.438 7.5Z" fill="white"/>
</svg>
